<svg width="36" height="36" viewBox="0 0 36 36" fill="none" xmlns="http://www.w3.org/2000/svg">
<path d="M14.1205 14.3144L13.3755 17.2974C14.4925 15.2494 16.3535 12.4574 18.4015 12.2714C18.7816 12.1921 19.1769 12.2955 19.4694 12.5509C19.7619 12.8063 19.9178 13.184 19.8905 13.5714C19.7191 14.643 19.4702 15.7008 19.1455 16.7364C20.6345 13.9444 22.4965 11.8964 24.1715 11.7104C25.0323 11.6077 25.8333 12.1669 26.0335 13.0104C26.0648 13.7727 25.9382 14.5333 25.6615 15.2444C25.2542 16.8225 24.757 18.376 24.1725 19.8974C23.9865 20.2694 24.1725 20.4554 24.3585 20.4554C24.7305 20.4554 25.8475 19.3384 26.4065 18.5934C26.5925 18.5934 26.9645 18.7794 26.9645 18.9654C26.038 20.9858 24.1412 22.3909 21.9385 22.6884C21.3754 22.7321 20.88 22.3192 20.8215 21.7574C20.792 21.3158 20.8554 20.873 21.0075 20.4574C21.5655 18.5954 22.1245 16.9204 22.6825 15.0574C22.8088 14.6987 22.8718 14.3207 22.8685 13.9404C22.8549 13.7408 22.696 13.5819 22.4965 13.5684C22.3105 13.5684 21.5655 14.1274 20.8215 15.4304C19.5215 17.2914 18.5875 20.2704 17.6565 22.6904C17.4705 23.2484 17.2845 23.2484 16.7255 23.2484C15.6085 23.4344 14.8635 23.2484 14.8635 22.6904C14.8635 22.3184 15.9805 18.4094 16.7255 15.6164C16.8518 15.2577 16.9148 14.8797 16.9115 14.4994C16.8979 14.2998 16.739 14.1409 16.5395 14.1274C16.1675 14.1274 15.4225 14.6854 14.6775 15.9894C13.4299 18.2968 12.4316 20.7305 11.6995 23.2494C11.5605 23.6325 11.1718 23.8654 10.7685 23.8074C9.65148 23.9934 8.90748 23.8074 8.90748 23.2494C8.90748 22.8774 10.3965 17.1064 10.7685 15.9894C10.9545 15.0584 10.9545 14.8724 10.5825 15.0584C9.65148 15.0584 9.09348 16.1754 8.72048 16.7334C8.53448 16.7334 8.16248 16.5474 8.16248 16.3614C8.87117 14.4689 10.6152 13.1608 12.6305 13.0104C14.3065 12.8254 14.3065 13.5704 14.1205 14.3144Z" fill="#E66065"/>
</svg>
