<svg width="106" height="29" viewBox="0 0 106 29" fill="none" xmlns="http://www.w3.org/2000/svg">
<g clip-path="url(#clip0_1_39)">
<path d="M6.12051 18.3144L5.37551 21.2974C6.49251 19.2494 8.35351 16.4574 10.4015 16.2714C10.7816 16.1921 11.1769 16.2955 11.4694 16.5509C11.7619 16.8063 11.9178 17.184 11.8905 17.5714C11.7192 18.643 11.4702 19.7008 11.1455 20.7364C12.6345 17.9444 14.4965 15.8964 16.1715 15.7104C17.0323 15.6077 17.8333 16.1669 18.0335 17.0104C18.0649 17.7727 17.9382 18.5333 17.6615 19.2444C17.2542 20.8225 16.7571 22.376 16.1725 23.8974C15.9865 24.2694 16.1725 24.4554 16.3585 24.4554C16.7305 24.4554 17.8475 23.3384 18.4065 22.5934C18.5925 22.5934 18.9645 22.7794 18.9645 22.9654C18.038 24.9858 16.1412 26.3909 13.9385 26.6884C13.3754 26.7321 12.88 26.3192 12.8215 25.7574C12.792 25.3158 12.8554 24.873 13.0075 24.4574C13.5655 22.5954 14.1245 20.9204 14.6825 19.0574C14.8089 18.6987 14.8718 18.3207 14.8685 17.9404C14.855 17.7408 14.6961 17.5819 14.4965 17.5684C14.3105 17.5684 13.5655 18.1274 12.8215 19.4304C11.5215 21.2914 10.5875 24.2704 9.65651 26.6904C9.47051 27.2484 9.28451 27.2484 8.72551 27.2484C7.60851 27.4344 6.86351 27.2484 6.86351 26.6904C6.86351 26.3184 7.98051 22.4094 8.72551 19.6164C8.85187 19.2577 8.91481 18.8797 8.91151 18.4994C8.89796 18.2998 8.73908 18.1409 8.53951 18.1274C8.16751 18.1274 7.42251 18.6854 6.67751 19.9894C5.42992 22.2968 4.43163 24.7305 3.69951 27.2494C3.56057 27.6325 3.17185 27.8654 2.76851 27.8074C1.65151 27.9934 0.907506 27.8074 0.907506 27.2494C0.907506 26.8774 2.39651 21.1064 2.76851 19.9894C2.95451 19.0584 2.95451 18.8724 2.58251 19.0584C1.65151 19.0584 1.09351 20.1754 0.720506 20.7334C0.534506 20.7334 0.162506 20.5474 0.162506 20.3614C0.8712 18.4689 2.61525 17.1608 4.63051 17.0104C6.30651 16.8254 6.30651 17.5704 6.12051 18.3144Z" fill="#E66065"/>
<path d="M28.4585 15.5224L28.8305 14.2224C29.0165 14.0364 29.2025 14.0364 29.5755 14.0364H30.5065C30.8729 14.1068 31.2026 14.3045 31.4375 14.5944C30.6925 17.0144 29.9485 19.9944 29.2035 22.7854C29.2035 23.1574 29.2035 23.3434 29.3895 23.3434C30.2824 22.9264 31.052 22.2852 31.6235 21.4824C31.924 21.5001 32.1638 21.7398 32.1815 22.0404C31.1829 23.7734 29.4878 24.9939 27.5275 25.3914C26.989 25.3653 26.5331 24.9853 26.4105 24.4604C26.3948 24.0792 26.4582 23.6989 26.5965 23.3434L27.1545 21.2954H26.9725C25.6725 23.3434 23.4355 25.5774 21.7605 25.7634C21.0155 25.7634 20.0855 25.2054 20.0855 24.4634C19.8995 22.9744 21.0165 19.8094 23.2505 17.3894C24.3205 16.0369 25.8396 15.1124 27.5325 14.7834C27.5275 14.9644 28.0865 15.1504 28.4585 15.5224ZM26.7835 16.2674C26.4115 16.2674 26.0385 16.6394 25.2945 17.7564C24.1725 19.4334 23.2465 22.0334 23.4325 23.5274V23.7134C23.446 23.9129 23.6049 24.0718 23.8045 24.0854C24.3625 24.0854 25.6665 22.4104 26.2245 21.2934C26.9695 19.9934 27.7135 17.9424 28.0855 17.1934C27.5275 16.2674 27.1555 16.0814 26.7835 16.2674Z" fill="#E66065"/>
<path d="M42.4205 14.7774C42.6065 16.2664 41.6755 17.3834 40.9315 17.3834C40.3735 17.3834 40.3735 17.0114 40.1865 16.2664C40.0005 15.8944 40.0005 15.7084 39.8145 15.7084C39.4425 15.7084 38.8835 16.8254 38.3255 18.1284C37.4764 20.1167 36.7914 22.1713 36.2775 24.2714C36.0518 24.6657 35.6113 24.8858 35.1605 24.8294C34.6025 24.8294 33.4855 24.8294 33.6715 23.8984C34.2295 21.4784 34.7885 18.8724 35.3465 16.6384C35.5325 16.0804 35.5325 15.8934 35.1605 15.8934C34.7885 15.8934 33.8605 16.8244 33.2995 17.5684C33.1459 17.59 32.9911 17.5382 32.8814 17.4285C32.7717 17.3188 32.7199 17.164 32.7415 17.0104C33.354 15.3842 34.7609 14.1882 36.4645 13.8454C37.9535 13.6594 38.1395 14.7764 37.7645 16.0794L37.0195 18.8714H37.2055C37.9505 17.3824 38.5055 16.2654 38.8805 15.3344C39.6255 14.2174 40.1805 13.4734 41.1145 13.2864C41.8615 13.2884 42.4205 13.6604 42.4205 14.7774Z" fill="#E66065"/>
<path d="M42.6065 21.1064C42.5765 19.1167 43.1614 17.1662 44.2815 15.5214C45.221 13.9991 46.7907 12.9754 48.5625 12.7294C50.0515 12.5434 51.1685 13.1014 51.3545 14.4044C51.432 14.8348 51.3077 15.2769 51.0171 15.6038C50.7266 15.9306 50.302 16.106 49.8655 16.0794C49.3593 16.1452 48.8822 15.827 48.7485 15.3344C48.7485 14.7764 48.5625 13.8454 48.1895 13.8454C47.8165 13.8454 47.2585 14.4034 46.8895 15.5204C46.2525 16.984 45.9962 18.585 46.1445 20.1744C46.3305 21.2914 46.7025 21.8494 47.2615 21.6634C47.8205 21.6634 48.7505 21.1054 49.6815 19.8014C49.8353 19.7797 49.9904 19.8316 50.1001 19.9416C50.2098 20.0515 50.2615 20.2066 50.2395 20.3604C49.295 22.1418 47.5743 23.3815 45.5855 23.7134C43.7235 23.8984 42.7935 22.7814 42.6065 21.1064Z" fill="#E66065"/>
<path d="M61.9665 14.9644C62.0668 16.9935 61.4024 18.9864 60.1045 20.5494C59.0635 21.7783 57.6016 22.5749 56.0045 22.7834C53.3985 22.9694 52.2815 21.4834 52.0955 19.6184C51.9727 17.4413 52.7079 15.3027 54.1435 13.6614C55.0894 12.5729 56.4282 11.9037 57.8665 11.8004C60.6635 11.4274 61.7805 13.1024 61.9665 14.9644ZM56.9405 13.8474C56.1955 15.1474 54.8925 18.1284 55.0795 20.5474C55.0641 20.7987 55.1573 21.0445 55.3353 21.2226C55.5134 21.4006 55.7592 21.4937 56.0105 21.4784C56.5685 21.4784 57.1275 20.7334 57.6855 19.6174C58.5487 17.7505 58.9925 15.7172 58.9855 13.6604C58.9855 13.1014 58.7995 12.5434 58.2405 12.7294C57.8715 12.7304 57.4985 13.1024 56.9405 13.8474Z" fill="#E66065"/>
<path d="M69.4125 10.8684C69.7845 10.8684 69.9705 10.6824 70.1575 10.6824C73.3225 10.3104 74.4395 11.9824 74.6255 13.8474C74.7655 15.4782 74.2268 17.0946 73.1365 18.3154C71.9954 19.894 70.2343 20.9099 68.2965 21.1074C67.9146 21.1369 67.5312 21.0731 67.1795 20.9214C66.9935 20.9214 66.9935 21.1074 66.8075 21.2934L66.0625 24.6444C65.8765 25.5754 65.8765 26.1334 66.8075 26.1334H67.9225C68.0948 26.2248 68.2024 26.4039 68.2024 26.5989C68.2024 26.7939 68.0948 26.973 67.9225 27.0644L66.0615 27.2504C64.5725 27.4364 63.0835 27.6224 61.0355 27.9954C60.6635 27.8094 60.6635 27.4374 60.8495 27.0644L61.5945 26.8784C62.7115 26.6924 62.8945 26.1334 63.2695 24.4584L66.0615 12.5444C65.2177 12.9047 64.4078 13.3398 63.6415 13.8444C63.2695 13.8444 63.0835 13.4724 63.2695 13.0994C64.19 12.2285 65.2629 11.5343 66.4345 11.0514L66.9925 9.18938C67.3221 8.92785 67.7025 8.73781 68.1095 8.63138C69.0405 8.63138 69.5985 8.63138 69.7845 9.00338L69.4125 10.8684ZM67.5505 18.8684C67.5505 19.2404 67.3645 19.6134 67.7365 19.7994C67.9418 19.9955 68.2014 20.1251 68.4815 20.1714C69.0779 20.047 69.5687 19.6252 69.7815 19.0544C70.7463 17.5571 71.2638 15.8156 71.2735 14.0344C71.0875 12.5454 70.3425 11.9864 69.4115 12.1734H69.0395L67.5505 18.8684Z" fill="#E66065"/>
<path d="M86.3515 12.5444C86.4518 14.5735 85.7874 16.5664 84.4895 18.1294C83.4485 19.3584 81.9866 20.155 80.3895 20.3634C77.7835 20.5494 76.6665 19.0634 76.4805 17.1984C76.3576 15.0212 77.0928 12.8826 78.5285 11.2414C79.4742 10.1525 80.813 9.48288 82.2515 9.37937C85.0485 9.00737 86.1655 10.6824 86.3515 12.5444ZM81.3255 11.4274C80.5805 12.7274 79.2775 15.7094 79.4635 18.1274C79.4481 18.3787 79.5413 18.6245 79.7193 18.8026C79.8974 18.9806 80.1432 19.0737 80.3945 19.0584C80.9525 19.0584 81.5115 18.3134 82.0705 17.1964C82.9341 15.3302 83.3785 13.2976 83.3725 11.2414C83.3725 10.6834 83.1865 10.1244 82.6275 10.3104C82.0304 10.4342 81.5387 10.856 81.3255 11.4274Z" fill="#E66065"/>
<path d="M88.0275 18.3144C88.0177 17.8117 88.0803 17.3102 88.2135 16.8254L91.1915 3.98039C91.3775 3.04939 91.3775 2.86339 90.8195 2.49139L90.0745 2.11939C89.9868 2.05346 89.9352 1.95012 89.9352 1.84039C89.9352 1.73065 89.9868 1.62731 90.0745 1.56139C91.521 0.991481 93.0165 0.554998 94.5425 0.257385C94.7275 0.257385 94.7275 0.257385 94.7275 0.443385C94.4799 1.57687 94.1691 2.69562 93.7965 3.79439L91.1915 16.2664C91.0055 17.0114 91.0055 17.3834 91.3775 17.3834C91.9355 17.3834 93.2395 15.7084 93.7975 14.9634C94.098 14.9811 94.3378 15.2209 94.3555 15.5214C93.7365 17.645 91.9002 19.1874 89.7015 19.4304C88.3995 19.4314 88.0275 18.8724 88.0275 18.3144Z" fill="#E66065"/>
<path d="M104.782 10.6824C104.882 12.7114 104.218 14.7043 102.921 16.2674C101.879 17.4963 100.418 18.2929 98.8205 18.5014C96.2145 18.6874 95.0975 17.2014 94.9115 15.3364C94.7884 13.1592 95.5237 11.0206 96.9595 9.37938C97.9052 8.29048 99.244 7.62089 100.683 7.51738C101.66 7.295 102.685 7.52094 103.478 8.1334C104.271 8.74587 104.749 9.68076 104.782 10.6824ZM99.9415 9.56538C99.1965 10.8654 97.8935 13.8464 98.0795 16.2654C98.0641 16.5167 98.1573 16.7625 98.3353 16.9406C98.5134 17.1186 98.7592 17.2117 99.0105 17.1964C99.5695 17.1964 100.128 16.4514 100.686 15.3344C101.549 13.4675 101.993 11.4342 101.986 9.37738C101.986 8.81938 101.8 8.26038 101.241 8.44638C100.653 8.58994 100.17 9.00595 99.9415 9.56538Z" fill="#E66065"/>
</g>
<defs>
<clipPath id="clip0_1_39">
<rect width="105" height="28" fill="white" transform="translate(0.163513 0.257385)"/>
</clipPath>
</defs>
</svg>
